<mxfile host="app.diagrams.net" modified="2021-03-29T08:45:59.537Z" agent="5.0 (Windows NT 10.0; Win64; x64) AppleWebKit/537.36 (KHTML, like Gecko) Chrome/89.0.4389.90 Safari/537.36" etag="dqCAppwO5-ROAUEEE7eU" version="14.5.0" type="github">
  <diagram id="Qk2V2iAS_bsN-FQObt6a" name="Page-1">
    <mxGraphModel dx="1278" dy="580" grid="1" gridSize="10" guides="1" tooltips="1" connect="1" arrows="1" fold="1" page="1" pageScale="1" pageWidth="827" pageHeight="1169" math="0" shadow="0">
      <root>
        <mxCell id="0" />
        <mxCell id="1" parent="0" />
        <mxCell id="N0vluE6Mmj76I-Qcl7VS-1" value="" style="group" parent="1" vertex="1" connectable="0">
          <mxGeometry x="1110" y="300" width="210" height="110" as="geometry" />
        </mxCell>
        <mxCell id="N0vluE6Mmj76I-Qcl7VS-2" value="가공 전 차량 기본정보 Data" style="rounded=0;whiteSpace=wrap;html=1;" parent="N0vluE6Mmj76I-Qcl7VS-1" vertex="1">
          <mxGeometry x="30" width="180" height="80" as="geometry" />
        </mxCell>
        <mxCell id="N0vluE6Mmj76I-Qcl7VS-3" value="가공 전 차량 기본정보 Data" style="rounded=0;whiteSpace=wrap;html=1;" parent="N0vluE6Mmj76I-Qcl7VS-1" vertex="1">
          <mxGeometry x="20" y="10" width="180" height="80" as="geometry" />
        </mxCell>
        <mxCell id="N0vluE6Mmj76I-Qcl7VS-4" value="가공 전 차량 기본정보 Data" style="rounded=0;whiteSpace=wrap;html=1;" parent="N0vluE6Mmj76I-Qcl7VS-1" vertex="1">
          <mxGeometry x="10" y="20" width="180" height="80" as="geometry" />
        </mxCell>
        <mxCell id="N0vluE6Mmj76I-Qcl7VS-5" value="제휴사 별 차량정보 Data" style="rounded=0;whiteSpace=wrap;html=1;" parent="N0vluE6Mmj76I-Qcl7VS-1" vertex="1">
          <mxGeometry y="30" width="180" height="80" as="geometry" />
        </mxCell>
        <mxCell id="N0vluE6Mmj76I-Qcl7VS-6" value="" style="group" parent="1" vertex="1" connectable="0">
          <mxGeometry x="900" y="300" width="210" height="110" as="geometry" />
        </mxCell>
        <mxCell id="N0vluE6Mmj76I-Qcl7VS-7" value="가공 전 차량 기본정보 Data" style="rounded=0;whiteSpace=wrap;html=1;" parent="N0vluE6Mmj76I-Qcl7VS-6" vertex="1">
          <mxGeometry x="30" width="180" height="80" as="geometry" />
        </mxCell>
        <mxCell id="N0vluE6Mmj76I-Qcl7VS-8" value="가공 전 차량 기본정보 Data" style="rounded=0;whiteSpace=wrap;html=1;" parent="N0vluE6Mmj76I-Qcl7VS-6" vertex="1">
          <mxGeometry x="20" y="10" width="180" height="80" as="geometry" />
        </mxCell>
        <mxCell id="N0vluE6Mmj76I-Qcl7VS-9" value="가공 전 차량 기본정보 Data" style="rounded=0;whiteSpace=wrap;html=1;" parent="N0vluE6Mmj76I-Qcl7VS-6" vertex="1">
          <mxGeometry x="10" y="20" width="180" height="80" as="geometry" />
        </mxCell>
        <mxCell id="N0vluE6Mmj76I-Qcl7VS-10" value="제휴사 별 차량정보 Data" style="rounded=0;whiteSpace=wrap;html=1;" parent="N0vluE6Mmj76I-Qcl7VS-6" vertex="1">
          <mxGeometry y="30" width="180" height="80" as="geometry" />
        </mxCell>
        <mxCell id="N0vluE6Mmj76I-Qcl7VS-11" value="" style="group" parent="1" vertex="1" connectable="0">
          <mxGeometry x="363" y="220" width="300" height="170" as="geometry" />
        </mxCell>
        <mxCell id="N0vluE6Mmj76I-Qcl7VS-12" value="가공 전 차량 기본정보 Data" style="rounded=0;whiteSpace=wrap;html=1;" parent="N0vluE6Mmj76I-Qcl7VS-11" vertex="1">
          <mxGeometry x="42.857142857142854" width="257.1428571428571" height="123.63636363636363" as="geometry" />
        </mxCell>
        <mxCell id="N0vluE6Mmj76I-Qcl7VS-13" value="가공 전 차량 기본정보 Data" style="rounded=0;whiteSpace=wrap;html=1;" parent="N0vluE6Mmj76I-Qcl7VS-11" vertex="1">
          <mxGeometry x="28.571428571428573" y="15.454545454545453" width="257.1428571428571" height="123.63636363636363" as="geometry" />
        </mxCell>
        <mxCell id="N0vluE6Mmj76I-Qcl7VS-14" value="가공 전 차량 기본정보 Data" style="rounded=0;whiteSpace=wrap;html=1;" parent="N0vluE6Mmj76I-Qcl7VS-11" vertex="1">
          <mxGeometry x="14.285714285714286" y="30.909090909090907" width="257.1428571428571" height="123.63636363636363" as="geometry" />
        </mxCell>
        <mxCell id="N0vluE6Mmj76I-Qcl7VS-15" value="가공 전 차량 기본정보 Data" style="rounded=0;whiteSpace=wrap;html=1;" parent="N0vluE6Mmj76I-Qcl7VS-11" vertex="1">
          <mxGeometry y="46.36363636363636" width="257.1428571428571" height="123.63636363636363" as="geometry" />
        </mxCell>
        <mxCell id="N0vluE6Mmj76I-Qcl7VS-16" value="" style="group" parent="1" vertex="1" connectable="0">
          <mxGeometry x="900" y="200" width="210" height="110" as="geometry" />
        </mxCell>
        <mxCell id="N0vluE6Mmj76I-Qcl7VS-17" value="가공 전 차량 기본정보 Data" style="rounded=0;whiteSpace=wrap;html=1;" parent="N0vluE6Mmj76I-Qcl7VS-16" vertex="1">
          <mxGeometry x="30" width="180" height="80" as="geometry" />
        </mxCell>
        <mxCell id="N0vluE6Mmj76I-Qcl7VS-18" value="가공 전 차량 기본정보 Data" style="rounded=0;whiteSpace=wrap;html=1;" parent="N0vluE6Mmj76I-Qcl7VS-16" vertex="1">
          <mxGeometry x="20" y="10" width="180" height="80" as="geometry" />
        </mxCell>
        <mxCell id="N0vluE6Mmj76I-Qcl7VS-19" value="가공 전 차량 기본정보 Data" style="rounded=0;whiteSpace=wrap;html=1;" parent="N0vluE6Mmj76I-Qcl7VS-16" vertex="1">
          <mxGeometry x="10" y="20" width="180" height="80" as="geometry" />
        </mxCell>
        <mxCell id="N0vluE6Mmj76I-Qcl7VS-20" value="제휴사 별 차량정보 Data" style="rounded=0;whiteSpace=wrap;html=1;" parent="N0vluE6Mmj76I-Qcl7VS-16" vertex="1">
          <mxGeometry y="30" width="180" height="80" as="geometry" />
        </mxCell>
        <mxCell id="N0vluE6Mmj76I-Qcl7VS-21" value="" style="group" parent="1" vertex="1" connectable="0">
          <mxGeometry x="1110" y="200" width="210" height="110" as="geometry" />
        </mxCell>
        <mxCell id="N0vluE6Mmj76I-Qcl7VS-22" value="가공 전 차량 기본정보 Data" style="rounded=0;whiteSpace=wrap;html=1;" parent="N0vluE6Mmj76I-Qcl7VS-21" vertex="1">
          <mxGeometry x="30" width="180" height="80" as="geometry" />
        </mxCell>
        <mxCell id="N0vluE6Mmj76I-Qcl7VS-23" value="가공 전 차량 기본정보 Data" style="rounded=0;whiteSpace=wrap;html=1;" parent="N0vluE6Mmj76I-Qcl7VS-21" vertex="1">
          <mxGeometry x="20" y="10" width="180" height="80" as="geometry" />
        </mxCell>
        <mxCell id="N0vluE6Mmj76I-Qcl7VS-24" value="가공 전 차량 기본정보 Data" style="rounded=0;whiteSpace=wrap;html=1;" parent="N0vluE6Mmj76I-Qcl7VS-21" vertex="1">
          <mxGeometry x="15" y="20" width="180" height="80" as="geometry" />
        </mxCell>
        <mxCell id="N0vluE6Mmj76I-Qcl7VS-25" value="제휴사 별 차량정보 Data" style="rounded=0;whiteSpace=wrap;html=1;" parent="N0vluE6Mmj76I-Qcl7VS-21" vertex="1">
          <mxGeometry y="30" width="180" height="80" as="geometry" />
        </mxCell>
        <mxCell id="cEP6RBY-gSiB9mu-ybWF-1" style="edgeStyle=orthogonalEdgeStyle;rounded=0;orthogonalLoop=1;jettySize=auto;html=1;exitX=0.25;exitY=0;exitDx=0;exitDy=0;entryX=0.34;entryY=-0.062;entryDx=0;entryDy=0;entryPerimeter=0;" parent="N0vluE6Mmj76I-Qcl7VS-21" source="N0vluE6Mmj76I-Qcl7VS-24" target="N0vluE6Mmj76I-Qcl7VS-24" edge="1">
          <mxGeometry relative="1" as="geometry" />
        </mxCell>
        <mxCell id="N0vluE6Mmj76I-Qcl7VS-26" style="edgeStyle=orthogonalEdgeStyle;rounded=0;orthogonalLoop=1;jettySize=auto;html=1;exitX=1;exitY=0.5;exitDx=0;exitDy=0;endArrow=none;endFill=0;startArrow=classic;startFill=1;" parent="1" source="N0vluE6Mmj76I-Qcl7VS-28" edge="1">
          <mxGeometry relative="1" as="geometry">
            <mxPoint x="1100" y="410" as="targetPoint" />
          </mxGeometry>
        </mxCell>
        <mxCell id="N0vluE6Mmj76I-Qcl7VS-27" value="" style="edgeStyle=orthogonalEdgeStyle;rounded=0;orthogonalLoop=1;jettySize=auto;html=1;startArrow=none;startFill=0;endArrow=classic;endFill=1;" parent="1" source="N0vluE6Mmj76I-Qcl7VS-28" target="N0vluE6Mmj76I-Qcl7VS-58" edge="1">
          <mxGeometry relative="1" as="geometry" />
        </mxCell>
        <mxCell id="N0vluE6Mmj76I-Qcl7VS-28" value="DB분류&lt;br&gt;Case Tool&lt;br&gt;시작" style="ellipse;whiteSpace=wrap;html=1;" parent="1" vertex="1">
          <mxGeometry x="730" y="420" width="160" height="100" as="geometry" />
        </mxCell>
        <mxCell id="N0vluE6Mmj76I-Qcl7VS-29" style="edgeStyle=orthogonalEdgeStyle;rounded=0;orthogonalLoop=1;jettySize=auto;html=1;exitX=0;exitY=0.5;exitDx=0;exitDy=0;endArrow=none;endFill=0;startArrow=classic;startFill=1;" parent="1" source="N0vluE6Mmj76I-Qcl7VS-28" edge="1">
          <mxGeometry relative="1" as="geometry">
            <mxPoint x="530" y="410" as="targetPoint" />
            <mxPoint x="430" y="510" as="sourcePoint" />
          </mxGeometry>
        </mxCell>
        <mxCell id="N0vluE6Mmj76I-Qcl7VS-30" value="" style="group" parent="1" vertex="1" connectable="0">
          <mxGeometry x="398.5" y="791.5" width="229" height="130" as="geometry" />
        </mxCell>
        <mxCell id="N0vluE6Mmj76I-Qcl7VS-31" value="가공 전 차량 기본정보 Data" style="rounded=0;whiteSpace=wrap;html=1;" parent="N0vluE6Mmj76I-Qcl7VS-30" vertex="1">
          <mxGeometry x="32.71428571428571" width="196.28571428571425" height="94.54545454545453" as="geometry" />
        </mxCell>
        <mxCell id="N0vluE6Mmj76I-Qcl7VS-32" value="가공 전 차량 기본정보 Data" style="rounded=0;whiteSpace=wrap;html=1;" parent="N0vluE6Mmj76I-Qcl7VS-30" vertex="1">
          <mxGeometry x="21.80952380952381" y="11.818181818181817" width="196.28571428571425" height="94.54545454545453" as="geometry" />
        </mxCell>
        <mxCell id="N0vluE6Mmj76I-Qcl7VS-33" value="가공 전 차량 기본정보 Data" style="rounded=0;whiteSpace=wrap;html=1;" parent="N0vluE6Mmj76I-Qcl7VS-30" vertex="1">
          <mxGeometry x="10.904761904761905" y="23.636363636363633" width="196.28571428571425" height="94.54545454545453" as="geometry" />
        </mxCell>
        <mxCell id="N0vluE6Mmj76I-Qcl7VS-34" value="브랜드 별 차량 대분류 목록 Data&lt;br&gt;(ex. 아반떼, 그랜저, K5 등)" style="rounded=0;whiteSpace=wrap;html=1;" parent="N0vluE6Mmj76I-Qcl7VS-30" vertex="1">
          <mxGeometry y="35.45454545454545" width="196.28571428571425" height="94.54545454545453" as="geometry" />
        </mxCell>
        <mxCell id="N0vluE6Mmj76I-Qcl7VS-35" value="" style="edgeStyle=orthogonalEdgeStyle;rounded=0;orthogonalLoop=1;jettySize=auto;html=1;startArrow=none;startFill=0;endArrow=classic;endFill=1;" parent="1" source="N0vluE6Mmj76I-Qcl7VS-38" target="N0vluE6Mmj76I-Qcl7VS-54" edge="1">
          <mxGeometry relative="1" as="geometry" />
        </mxCell>
        <mxCell id="N0vluE6Mmj76I-Qcl7VS-36" style="edgeStyle=orthogonalEdgeStyle;rounded=0;orthogonalLoop=1;jettySize=auto;html=1;exitX=0.5;exitY=1;exitDx=0;exitDy=0;entryX=0.5;entryY=0;entryDx=0;entryDy=0;startArrow=none;startFill=0;endArrow=classic;endFill=1;" parent="1" source="N0vluE6Mmj76I-Qcl7VS-38" target="N0vluE6Mmj76I-Qcl7VS-41" edge="1">
          <mxGeometry relative="1" as="geometry" />
        </mxCell>
        <mxCell id="N0vluE6Mmj76I-Qcl7VS-37" style="edgeStyle=orthogonalEdgeStyle;rounded=0;orthogonalLoop=1;jettySize=auto;html=1;exitX=0;exitY=0.5;exitDx=0;exitDy=0;entryX=1.003;entryY=0.685;entryDx=0;entryDy=0;entryPerimeter=0;startArrow=classic;startFill=1;endArrow=none;endFill=0;" parent="1" source="N0vluE6Mmj76I-Qcl7VS-38" target="N0vluE6Mmj76I-Qcl7VS-31" edge="1">
          <mxGeometry relative="1" as="geometry" />
        </mxCell>
        <mxCell id="N0vluE6Mmj76I-Qcl7VS-38" value="제휴사에 해당 대분류를 가진&lt;br&gt;차량이 있는가?" style="rhombus;whiteSpace=wrap;html=1;" parent="1" vertex="1">
          <mxGeometry x="695" y="801.5" width="230" height="110" as="geometry" />
        </mxCell>
        <mxCell id="N0vluE6Mmj76I-Qcl7VS-39" value="" style="edgeStyle=orthogonalEdgeStyle;rounded=0;orthogonalLoop=1;jettySize=auto;html=1;startArrow=none;startFill=0;endArrow=classic;endFill=1;" parent="1" source="N0vluE6Mmj76I-Qcl7VS-41" target="N0vluE6Mmj76I-Qcl7VS-49" edge="1">
          <mxGeometry relative="1" as="geometry" />
        </mxCell>
        <mxCell id="N0vluE6Mmj76I-Qcl7VS-40" value="" style="edgeStyle=orthogonalEdgeStyle;rounded=0;orthogonalLoop=1;jettySize=auto;html=1;startArrow=none;startFill=0;endArrow=classic;endFill=1;" parent="1" source="N0vluE6Mmj76I-Qcl7VS-41" target="N0vluE6Mmj76I-Qcl7VS-44" edge="1">
          <mxGeometry relative="1" as="geometry" />
        </mxCell>
        <mxCell id="N0vluE6Mmj76I-Qcl7VS-41" value="제휴사 차량 목록에&lt;br&gt;같은 배기량을 가진&lt;br&gt;차량이 있는가?" style="rhombus;whiteSpace=wrap;html=1;" parent="1" vertex="1">
          <mxGeometry x="695" y="979.5" width="230" height="110" as="geometry" />
        </mxCell>
        <mxCell id="N0vluE6Mmj76I-Qcl7VS-42" value="" style="edgeStyle=orthogonalEdgeStyle;rounded=0;orthogonalLoop=1;jettySize=auto;html=1;startArrow=none;startFill=0;endArrow=classic;endFill=1;" parent="1" source="N0vluE6Mmj76I-Qcl7VS-44" target="N0vluE6Mmj76I-Qcl7VS-46" edge="1">
          <mxGeometry relative="1" as="geometry" />
        </mxCell>
        <mxCell id="N0vluE6Mmj76I-Qcl7VS-43" value="" style="edgeStyle=orthogonalEdgeStyle;rounded=0;orthogonalLoop=1;jettySize=auto;html=1;startArrow=none;startFill=0;endArrow=classic;endFill=1;entryX=0.5;entryY=0;entryDx=0;entryDy=0;" parent="1" source="N0vluE6Mmj76I-Qcl7VS-44" target="N0vluE6Mmj76I-Qcl7VS-66" edge="1">
          <mxGeometry relative="1" as="geometry">
            <mxPoint x="810" y="1380" as="targetPoint" />
          </mxGeometry>
        </mxCell>
        <mxCell id="N0vluE6Mmj76I-Qcl7VS-44" value="제휴사에 해당 등급을 가진&lt;br&gt;차량이 있는가?" style="rhombus;whiteSpace=wrap;html=1;" parent="1" vertex="1">
          <mxGeometry x="695" y="1149.5" width="230" height="110" as="geometry" />
        </mxCell>
        <mxCell id="N0vluE6Mmj76I-Qcl7VS-45" style="edgeStyle=orthogonalEdgeStyle;rounded=0;orthogonalLoop=1;jettySize=auto;html=1;exitX=1;exitY=0.5;exitDx=0;exitDy=0;entryX=0.5;entryY=1;entryDx=0;entryDy=0;startArrow=none;startFill=0;endArrow=classic;endFill=1;" parent="1" source="N0vluE6Mmj76I-Qcl7VS-46" target="N0vluE6Mmj76I-Qcl7VS-56" edge="1">
          <mxGeometry relative="1" as="geometry" />
        </mxCell>
        <mxCell id="N0vluE6Mmj76I-Qcl7VS-46" value="해당 차량에 등급이 있는가?" style="rhombus;whiteSpace=wrap;html=1;" parent="1" vertex="1">
          <mxGeometry x="980" y="1149.5" width="230" height="110" as="geometry" />
        </mxCell>
        <mxCell id="N0vluE6Mmj76I-Qcl7VS-47" style="edgeStyle=orthogonalEdgeStyle;rounded=0;orthogonalLoop=1;jettySize=auto;html=1;exitX=1;exitY=0.5;exitDx=0;exitDy=0;" parent="1" source="N0vluE6Mmj76I-Qcl7VS-49" edge="1">
          <mxGeometry relative="1" as="geometry">
            <mxPoint x="1340" y="1034" as="targetPoint" />
            <Array as="points">
              <mxPoint x="1275" y="1034" />
            </Array>
          </mxGeometry>
        </mxCell>
        <mxCell id="N0vluE6Mmj76I-Qcl7VS-48" style="edgeStyle=orthogonalEdgeStyle;rounded=0;orthogonalLoop=1;jettySize=auto;html=1;exitX=0.5;exitY=1;exitDx=0;exitDy=0;" parent="1" source="N0vluE6Mmj76I-Qcl7VS-49" edge="1">
          <mxGeometry relative="1" as="geometry">
            <mxPoint x="810" y="1120" as="targetPoint" />
            <Array as="points">
              <mxPoint x="1095" y="1120" />
            </Array>
          </mxGeometry>
        </mxCell>
        <mxCell id="N0vluE6Mmj76I-Qcl7VS-49" value="해당 차량이름에&lt;br&gt;배기량이 있는가?" style="rhombus;whiteSpace=wrap;html=1;" parent="1" vertex="1">
          <mxGeometry x="980" y="979.5" width="230" height="110" as="geometry" />
        </mxCell>
        <mxCell id="N0vluE6Mmj76I-Qcl7VS-50" style="edgeStyle=orthogonalEdgeStyle;rounded=0;orthogonalLoop=1;jettySize=auto;html=1;exitX=0;exitY=0.5;exitDx=0;exitDy=0;" parent="1" source="N0vluE6Mmj76I-Qcl7VS-51" edge="1">
          <mxGeometry relative="1" as="geometry">
            <mxPoint x="810" y="722.1666666666667" as="targetPoint" />
            <Array as="points">
              <mxPoint x="914" y="722" />
            </Array>
          </mxGeometry>
        </mxCell>
        <mxCell id="N0vluE6Mmj76I-Qcl7VS-51" value="다음 대분류 검색" style="rounded=0;whiteSpace=wrap;html=1;" parent="1" vertex="1">
          <mxGeometry x="1017.5" y="683" width="155" height="79" as="geometry" />
        </mxCell>
        <mxCell id="N0vluE6Mmj76I-Qcl7VS-52" value="" style="edgeStyle=orthogonalEdgeStyle;rounded=0;orthogonalLoop=1;jettySize=auto;html=1;startArrow=none;startFill=0;endArrow=classic;endFill=1;entryX=0.5;entryY=1;entryDx=0;entryDy=0;" parent="1" source="N0vluE6Mmj76I-Qcl7VS-54" target="N0vluE6Mmj76I-Qcl7VS-51" edge="1">
          <mxGeometry relative="1" as="geometry">
            <mxPoint x="1095" y="770" as="targetPoint" />
          </mxGeometry>
        </mxCell>
        <mxCell id="N0vluE6Mmj76I-Qcl7VS-53" style="edgeStyle=orthogonalEdgeStyle;rounded=0;orthogonalLoop=1;jettySize=auto;html=1;exitX=1;exitY=0.5;exitDx=0;exitDy=0;entryX=0;entryY=0.5;entryDx=0;entryDy=0;" parent="1" source="N0vluE6Mmj76I-Qcl7VS-54" target="N0vluE6Mmj76I-Qcl7VS-56" edge="1">
          <mxGeometry relative="1" as="geometry" />
        </mxCell>
        <mxCell id="N0vluE6Mmj76I-Qcl7VS-54" value="해당 차량이름에 다른 종류의&lt;br&gt;대분류가 있는가?" style="rhombus;whiteSpace=wrap;html=1;" parent="1" vertex="1">
          <mxGeometry x="980" y="801.5" width="230" height="110" as="geometry" />
        </mxCell>
        <mxCell id="N0vluE6Mmj76I-Qcl7VS-55" style="edgeStyle=orthogonalEdgeStyle;rounded=0;orthogonalLoop=1;jettySize=auto;html=1;exitX=0.5;exitY=0;exitDx=0;exitDy=0;" parent="1" source="N0vluE6Mmj76I-Qcl7VS-56" edge="1">
          <mxGeometry relative="1" as="geometry">
            <mxPoint x="1343" y="600" as="targetPoint" />
            <Array as="points">
              <mxPoint x="1342" y="708" />
            </Array>
          </mxGeometry>
        </mxCell>
        <mxCell id="N0vluE6Mmj76I-Qcl7VS-56" value="차량정보를 누락시킴" style="rounded=0;whiteSpace=wrap;html=1;" parent="1" vertex="1">
          <mxGeometry x="1265" y="817" width="155" height="79" as="geometry" />
        </mxCell>
        <mxCell id="N0vluE6Mmj76I-Qcl7VS-57" style="edgeStyle=orthogonalEdgeStyle;rounded=0;orthogonalLoop=1;jettySize=auto;html=1;exitX=0.5;exitY=1;exitDx=0;exitDy=0;entryX=0.5;entryY=0;entryDx=0;entryDy=0;startArrow=none;startFill=0;endArrow=classic;endFill=1;" parent="1" source="N0vluE6Mmj76I-Qcl7VS-58" target="N0vluE6Mmj76I-Qcl7VS-38" edge="1">
          <mxGeometry relative="1" as="geometry" />
        </mxCell>
        <mxCell id="N0vluE6Mmj76I-Qcl7VS-58" value="차량 기본정보에서&lt;br&gt;차량 하나 받아옴" style="rounded=0;whiteSpace=wrap;html=1;" parent="1" vertex="1">
          <mxGeometry x="735" y="559.5" width="150" height="84" as="geometry" />
        </mxCell>
        <mxCell id="N0vluE6Mmj76I-Qcl7VS-59" value="" style="group" parent="1" vertex="1" connectable="0">
          <mxGeometry x="360" y="1129.5" width="229" height="130" as="geometry" />
        </mxCell>
        <mxCell id="N0vluE6Mmj76I-Qcl7VS-60" value="가공 전 차량 기본정보 Data" style="rounded=0;whiteSpace=wrap;html=1;" parent="N0vluE6Mmj76I-Qcl7VS-59" vertex="1">
          <mxGeometry x="32.71428571428571" width="196.28571428571425" height="94.54545454545453" as="geometry" />
        </mxCell>
        <mxCell id="N0vluE6Mmj76I-Qcl7VS-61" value="가공 전 차량 기본정보 Data" style="rounded=0;whiteSpace=wrap;html=1;" parent="N0vluE6Mmj76I-Qcl7VS-59" vertex="1">
          <mxGeometry x="21.80952380952381" y="11.818181818181817" width="196.28571428571425" height="94.54545454545453" as="geometry" />
        </mxCell>
        <mxCell id="N0vluE6Mmj76I-Qcl7VS-62" value="가공 전 차량 기본정보 Data" style="rounded=0;whiteSpace=wrap;html=1;" parent="N0vluE6Mmj76I-Qcl7VS-59" vertex="1">
          <mxGeometry x="10.904761904761905" y="23.636363636363633" width="196.28571428571425" height="94.54545454545453" as="geometry" />
        </mxCell>
        <mxCell id="N0vluE6Mmj76I-Qcl7VS-63" value="차량 별 등급 목록 Data&lt;br&gt;(ex. 프레스티지, 리무진, 밴, 스마트)" style="rounded=0;whiteSpace=wrap;html=1;" parent="N0vluE6Mmj76I-Qcl7VS-59" vertex="1">
          <mxGeometry y="35.45454545454545" width="196.28571428571425" height="94.54545454545453" as="geometry" />
        </mxCell>
        <mxCell id="N0vluE6Mmj76I-Qcl7VS-64" style="edgeStyle=orthogonalEdgeStyle;rounded=0;orthogonalLoop=1;jettySize=auto;html=1;exitX=1;exitY=0.75;exitDx=0;exitDy=0;startArrow=none;startFill=0;endArrow=classic;endFill=1;entryX=0;entryY=0.5;entryDx=0;entryDy=0;" parent="1" source="N0vluE6Mmj76I-Qcl7VS-60" target="N0vluE6Mmj76I-Qcl7VS-44" edge="1">
          <mxGeometry relative="1" as="geometry">
            <mxPoint x="690" y="1271" as="targetPoint" />
            <Array as="points">
              <mxPoint x="589" y="1205" />
            </Array>
          </mxGeometry>
        </mxCell>
        <mxCell id="N0vluE6Mmj76I-Qcl7VS-65" value="" style="edgeStyle=orthogonalEdgeStyle;rounded=0;orthogonalLoop=1;jettySize=auto;html=1;" parent="1" source="N0vluE6Mmj76I-Qcl7VS-66" target="N0vluE6Mmj76I-Qcl7VS-69" edge="1">
          <mxGeometry relative="1" as="geometry" />
        </mxCell>
        <mxCell id="N0vluE6Mmj76I-Qcl7VS-66" value="기본 차량정보와 제휴사의 차량정보들&lt;br&gt;편집거리 알고리즘으로 비교&lt;br&gt;(Levenshtein&#39;s Edit Distance Algorithm)" style="rounded=0;whiteSpace=wrap;html=1;" parent="1" vertex="1">
          <mxGeometry x="690" y="1330" width="240" height="120" as="geometry" />
        </mxCell>
        <mxCell id="N0vluE6Mmj76I-Qcl7VS-67" style="edgeStyle=orthogonalEdgeStyle;rounded=0;orthogonalLoop=1;jettySize=auto;html=1;exitX=0;exitY=0.5;exitDx=0;exitDy=0;entryX=1.001;entryY=0.519;entryDx=0;entryDy=0;entryPerimeter=0;" parent="1" source="N0vluE6Mmj76I-Qcl7VS-69" target="N0vluE6Mmj76I-Qcl7VS-71" edge="1">
          <mxGeometry relative="1" as="geometry">
            <mxPoint x="600" y="1570" as="targetPoint" />
          </mxGeometry>
        </mxCell>
        <mxCell id="N0vluE6Mmj76I-Qcl7VS-68" value="" style="edgeStyle=orthogonalEdgeStyle;rounded=0;orthogonalLoop=1;jettySize=auto;html=1;" parent="1" source="N0vluE6Mmj76I-Qcl7VS-69" target="N0vluE6Mmj76I-Qcl7VS-77" edge="1">
          <mxGeometry relative="1" as="geometry" />
        </mxCell>
        <mxCell id="N0vluE6Mmj76I-Qcl7VS-69" value="가장 유사한 차량을 분류된 DB에 저장함" style="rounded=0;whiteSpace=wrap;html=1;" parent="1" vertex="1">
          <mxGeometry x="690" y="1490.5" width="240" height="120" as="geometry" />
        </mxCell>
        <mxCell id="N0vluE6Mmj76I-Qcl7VS-70" value="" style="group" parent="1" vertex="1" connectable="0">
          <mxGeometry x="363" y="1490.5" width="229" height="160" as="geometry" />
        </mxCell>
        <mxCell id="N0vluE6Mmj76I-Qcl7VS-71" value="가공 전 차량 기본정보 Data" style="rounded=0;whiteSpace=wrap;html=1;" parent="N0vluE6Mmj76I-Qcl7VS-70" vertex="1">
          <mxGeometry x="32.71428571428571" width="196.28571428571425" height="116.36363636363633" as="geometry" />
        </mxCell>
        <mxCell id="N0vluE6Mmj76I-Qcl7VS-72" value="가공 전 차량 기본정보 Data" style="rounded=0;whiteSpace=wrap;html=1;" parent="N0vluE6Mmj76I-Qcl7VS-70" vertex="1">
          <mxGeometry x="21.80952380952381" y="14.545454545454541" width="196.28571428571425" height="116.36363636363633" as="geometry" />
        </mxCell>
        <mxCell id="N0vluE6Mmj76I-Qcl7VS-73" value="가공 전 차량 기본정보 Data" style="rounded=0;whiteSpace=wrap;html=1;" parent="N0vluE6Mmj76I-Qcl7VS-70" vertex="1">
          <mxGeometry x="10.904761904761905" y="29.090909090909083" width="196.28571428571425" height="116.36363636363633" as="geometry" />
        </mxCell>
        <mxCell id="N0vluE6Mmj76I-Qcl7VS-74" value="기본정보, 제휴사 차량정보가&lt;br&gt;결합된 Data" style="rounded=0;whiteSpace=wrap;html=1;" parent="N0vluE6Mmj76I-Qcl7VS-70" vertex="1">
          <mxGeometry y="43.63636363636363" width="196.28571428571425" height="116.36363636363633" as="geometry" />
        </mxCell>
        <mxCell id="N0vluE6Mmj76I-Qcl7VS-75" style="edgeStyle=orthogonalEdgeStyle;rounded=0;orthogonalLoop=1;jettySize=auto;html=1;exitX=1;exitY=0.5;exitDx=0;exitDy=0;entryX=1;entryY=0.5;entryDx=0;entryDy=0;" parent="1" source="N0vluE6Mmj76I-Qcl7VS-77" target="N0vluE6Mmj76I-Qcl7VS-58" edge="1">
          <mxGeometry relative="1" as="geometry">
            <Array as="points">
              <mxPoint x="1440" y="1716" />
              <mxPoint x="1440" y="602" />
            </Array>
          </mxGeometry>
        </mxCell>
        <mxCell id="N0vluE6Mmj76I-Qcl7VS-76" value="" style="edgeStyle=orthogonalEdgeStyle;rounded=0;orthogonalLoop=1;jettySize=auto;html=1;" parent="1" source="N0vluE6Mmj76I-Qcl7VS-77" target="N0vluE6Mmj76I-Qcl7VS-78" edge="1">
          <mxGeometry relative="1" as="geometry" />
        </mxCell>
        <mxCell id="N0vluE6Mmj76I-Qcl7VS-77" value="모든 차량정보를 비교했는가?" style="rhombus;whiteSpace=wrap;html=1;" parent="1" vertex="1">
          <mxGeometry x="697.5" y="1660.5" width="225" height="110" as="geometry" />
        </mxCell>
        <mxCell id="N0vluE6Mmj76I-Qcl7VS-78" value="종료" style="ellipse;whiteSpace=wrap;html=1;aspect=fixed;" parent="1" vertex="1">
          <mxGeometry x="770" y="1820.5" width="80" height="80" as="geometry" />
        </mxCell>
        <mxCell id="N0vluE6Mmj76I-Qcl7VS-79" value="Yes" style="text;html=1;strokeColor=none;fillColor=none;align=center;verticalAlign=middle;whiteSpace=wrap;rounded=0;" parent="1" vertex="1">
          <mxGeometry x="810" y="1790" width="40" height="20" as="geometry" />
        </mxCell>
        <mxCell id="N0vluE6Mmj76I-Qcl7VS-80" value="Yes" style="text;html=1;strokeColor=none;fillColor=none;align=center;verticalAlign=middle;whiteSpace=wrap;rounded=0;" parent="1" vertex="1">
          <mxGeometry x="810" y="1260" width="40" height="20" as="geometry" />
        </mxCell>
        <mxCell id="N0vluE6Mmj76I-Qcl7VS-81" value="Yes" style="text;html=1;strokeColor=none;fillColor=none;align=center;verticalAlign=middle;whiteSpace=wrap;rounded=0;" parent="1" vertex="1">
          <mxGeometry x="810" y="1089.5" width="40" height="20" as="geometry" />
        </mxCell>
        <mxCell id="N0vluE6Mmj76I-Qcl7VS-82" value="Yes" style="text;html=1;strokeColor=none;fillColor=none;align=center;verticalAlign=middle;whiteSpace=wrap;rounded=0;" parent="1" vertex="1">
          <mxGeometry x="1210" y="1014.5" width="40" height="20" as="geometry" />
        </mxCell>
        <mxCell id="N0vluE6Mmj76I-Qcl7VS-83" value="Yes" style="text;html=1;strokeColor=none;fillColor=none;align=center;verticalAlign=middle;whiteSpace=wrap;rounded=0;" parent="1" vertex="1">
          <mxGeometry x="1210" y="1184.5" width="40" height="20" as="geometry" />
        </mxCell>
        <mxCell id="N0vluE6Mmj76I-Qcl7VS-84" value="Yes" style="text;html=1;strokeColor=none;fillColor=none;align=center;verticalAlign=middle;whiteSpace=wrap;rounded=0;" parent="1" vertex="1">
          <mxGeometry x="810" y="910" width="40" height="20" as="geometry" />
        </mxCell>
        <mxCell id="N0vluE6Mmj76I-Qcl7VS-85" value="Yes" style="text;html=1;strokeColor=none;fillColor=none;align=center;verticalAlign=middle;whiteSpace=wrap;rounded=0;" parent="1" vertex="1">
          <mxGeometry x="1210" y="836.5" width="40" height="20" as="geometry" />
        </mxCell>
        <mxCell id="N0vluE6Mmj76I-Qcl7VS-86" value="No" style="text;html=1;strokeColor=none;fillColor=none;align=center;verticalAlign=middle;whiteSpace=wrap;rounded=0;" parent="1" vertex="1">
          <mxGeometry x="925" y="836.5" width="40" height="20" as="geometry" />
        </mxCell>
        <mxCell id="N0vluE6Mmj76I-Qcl7VS-87" value="No" style="text;html=1;strokeColor=none;fillColor=none;align=center;verticalAlign=middle;whiteSpace=wrap;rounded=0;" parent="1" vertex="1">
          <mxGeometry x="925" y="1014.5" width="40" height="20" as="geometry" />
        </mxCell>
        <mxCell id="N0vluE6Mmj76I-Qcl7VS-88" value="No" style="text;html=1;strokeColor=none;fillColor=none;align=center;verticalAlign=middle;whiteSpace=wrap;rounded=0;" parent="1" vertex="1">
          <mxGeometry x="1095" y="1089.5" width="40" height="20" as="geometry" />
        </mxCell>
        <mxCell id="N0vluE6Mmj76I-Qcl7VS-89" value="No" style="text;html=1;strokeColor=none;fillColor=none;align=center;verticalAlign=middle;whiteSpace=wrap;rounded=0;" parent="1" vertex="1">
          <mxGeometry x="1095" y="1259.5" width="40" height="20" as="geometry" />
        </mxCell>
        <mxCell id="N0vluE6Mmj76I-Qcl7VS-90" value="No" style="text;html=1;strokeColor=none;fillColor=none;align=center;verticalAlign=middle;whiteSpace=wrap;rounded=0;" parent="1" vertex="1">
          <mxGeometry x="925" y="1184.5" width="40" height="20" as="geometry" />
        </mxCell>
        <mxCell id="N0vluE6Mmj76I-Qcl7VS-91" value="No" style="text;html=1;strokeColor=none;fillColor=none;align=center;verticalAlign=middle;whiteSpace=wrap;rounded=0;" parent="1" vertex="1">
          <mxGeometry x="1095" y="781.5" width="40" height="20" as="geometry" />
        </mxCell>
        <mxCell id="N0vluE6Mmj76I-Qcl7VS-92" value="No" style="text;html=1;strokeColor=none;fillColor=none;align=center;verticalAlign=middle;whiteSpace=wrap;rounded=0;" parent="1" vertex="1">
          <mxGeometry x="922.5" y="1715" width="40" height="20" as="geometry" />
        </mxCell>
        <mxCell id="N0vluE6Mmj76I-Qcl7VS-93" style="edgeStyle=orthogonalEdgeStyle;rounded=0;orthogonalLoop=1;jettySize=auto;html=1;exitX=0.5;exitY=1;exitDx=0;exitDy=0;" parent="1" source="N0vluE6Mmj76I-Qcl7VS-46" edge="1">
          <mxGeometry relative="1" as="geometry">
            <mxPoint x="810" y="1290" as="targetPoint" />
            <mxPoint x="1094.7857142857142" y="1269.7142857142858" as="sourcePoint" />
            <Array as="points">
              <mxPoint x="1095" y="1290" />
              <mxPoint x="810" y="1290" />
            </Array>
          </mxGeometry>
        </mxCell>
      </root>
    </mxGraphModel>
  </diagram>
</mxfile>
